<?xml version="1.0" encoding="utf-8"?>
<!-- Generator: Adobe Illustrator 26.5.0, SVG Export Plug-In . SVG Version: 6.00 Build 0)  -->
<svg version="1.1" id="Capa_1" xmlns="http://www.w3.org/2000/svg" xmlns:xlink="http://www.w3.org/1999/xlink" x="0px" y="0px"
	 viewBox="0 0 220 220" style="enable-background:new 0 0 220 220;" xml:space="preserve">
<style type="text/css">
	.st0{fill:#FBB52C;}
	.st1{fill:#FDA333;}
	.st2{fill:#FFE3F4;}
	.st3{fill:#FFA1C9;}
	.st4{fill:#E49250;}
	.st5{clip-path:url(#SVGID_00000056391412616195695730000009048769809783532448_);}
	.st6{fill:#FCC159;}
	.st7{fill:#FCAC54;}
	.st8{fill:#EA9C68;}
	.st9{clip-path:url(#SVGID_00000137822225647623023850000009073798111743300224_);}
	.st10{clip-path:url(#SVGID_00000173868696893682313560000000253839869708120465_);}
	.st11{fill:#F9C778;}
	.st12{fill:#FCB46D;}
	.st13{fill:#EFAA7B;}
</style>
<g>
	<path class="st0" d="M-1414.08,3266.83c12.45-56.52,24.9-113.03,37.34-169.55c23.96-108.79,61.33-233.95,165.29-273.97
		c80.63-31.04,169.7,2.61,253.06,25.35c162.67,44.38,336.77,46.15,500.31,5.1c160.84-40.38,315.99-121.81,481.61-113.51
		c169.65,8.5,320.93,110.2,488.15,140.04c225.43,40.23,450.01-52.68,671.24-111.8c35.06-9.37,264.59-50.86,327.35,1.26
		c35.4,29.41,57.56,71.79,73.59,114.93c38.63,103.89,46.42,219.02,22.15,327.17"/>
</g>
<g>
	<path class="st1" d="M-1310.54,3315.37c7.77-106.93,95.05-202.93,200.76-220.8c75.54-12.77,152.62,10.75,229.15,7.21
		c115.25-5.34,217.59-70.45,320.16-123.28c164.89-84.93,360.33-142.02,534.71-78.85c100.79,36.51,188,111.12,294.04,126.87
		c44.09,6.55,88.99,2.4,133.37-1.75c185.24-17.35,371.86-34.95,550.29-87.7c90.25-26.68,180.74-62.64,274.74-57.94
		c142.85,7.15,262.58,105.38,370.87,198.82c52.68,45.46,109.69,99.77,110.37,169.35c0.65,67.06-54.67,124.15-117.3,148.13
		c-62.63,23.98-131.67,22.23-198.73,21.84c-283.01-1.67-565.43,26.59-848.43,29.23c-273.37,2.55-546.32-18.8-819.25-34.58
		c-239.76-13.86-479.77-23.44-719.87-28.71c-125.56-2.76-254.44-4.98-371.02-51.68"/>
</g>
<g>
	<circle class="st2" cx="110.21" cy="110.21" r="108.21"/>
	<g>
		<path class="st3" d="M55.91,110.29c0-7.21-0.02-14.42,0-21.63c0.07-18.23,14.34-32.5,32.61-32.55c14.42-0.04,28.84-0.04,43.26,0
			c18.4,0.04,32.66,14.28,32.71,32.66c0.04,14.42,0.04,28.84,0,43.26c-0.05,18.4-14.3,32.61-32.71,32.66
			c-14.35,0.04-28.7,0.03-43.04,0c-18.53-0.04-32.77-14.27-32.82-32.77C55.9,124.71,55.91,117.5,55.91,110.29z M110.24,153.75
			c7,0,13.99,0.02,20.99,0c13.2-0.05,22.27-9.06,22.31-22.22c0.04-14.07,0.04-28.13,0-42.2c-0.03-13.18-9.11-22.23-22.27-22.24
			c-13.99-0.01-27.99-0.01-41.98,0c-13.3,0.01-22.39,9.03-22.41,22.31c-0.03,14-0.03,27.99,0,41.99
			c0.03,13.29,9.08,22.32,22.38,22.36C96.25,153.76,103.25,153.75,110.24,153.75z"/>
		<path class="st3" d="M82.15,110.33c0.04-15.62,12.61-28.07,28.26-27.98c15.49,0.09,27.86,12.63,27.83,28.22
			c-0.03,15.45-12.69,27.97-28.17,27.88C94.52,138.36,82.11,125.86,82.15,110.33z M127.32,110.48c0.06-9.49-7.47-17.11-16.98-17.2
			c-9.48-0.09-17.13,7.42-17.26,16.93c-0.13,9.55,7.51,17.29,17.08,17.31C119.67,127.54,127.27,119.99,127.32,110.48z"/>
		<path class="st3" d="M138.36,89.21c-3.79-0.04-6.86-3.12-6.87-6.88c-0.02-3.81,3.22-7.01,7.04-6.96c3.85,0.06,6.97,3.29,6.86,7.13
			C145.28,86.27,142.15,89.26,138.36,89.21z"/>
	</g>
</g>
<g>
	<g>
		<path class="st1" d="M1393.78,2485.55c3.22,0,3.22-5,0-5C1390.56,2480.55,1390.56,2485.55,1393.78,2485.55L1393.78,2485.55z"/>
	</g>
</g>
<g>
	<g>
		<path class="st1" d="M569.86,3077.15c3.22,0,3.22-5,0-5C566.65,3072.15,566.64,3077.15,569.86,3077.15L569.86,3077.15z"/>
	</g>
</g>
<g>
	<path class="st4" d="M1675.61,3035.92c-98.1-28.13-206.3-28.49-303.42-1.02c-135.21,38.25-598.26,128.04-740,143.65
		c-49.58,5.46-100.15,1.39-149.87-4.83c-102.8-12.86-204.21-34.9-302.02-65.66c-102.19-32.13-201.65-54.02-308.79-69.08
		c-103.51-14.54-177.88,0.43-306.1,33.46c-77.57,19.98-349.68,55.17-440.49,72.02c-75.44,13.99-154.14,15.7-232.09,11.65
		c-147.47-7.67-80.11-18.98-210.44-80.13c-26.37,57.57-168.67,112.95-157.82,174.63c4.04,22.96-1.27,47.45,10.09,68.66
		c17.1,31.94,63.33,42.7,103.72,48.87c668.35,102.04,1574.57-2.86,2247.41,70.91c70.72,7.75,497.06,16.67,558.91-12.3
		c59.13-27.7,90.68-83.49,117.84-136.21c42.15-81.81,82.31-164.39,120.45-247.67"/>
</g>
<g>
	<defs>
		<rect id="SVGID_1_" x="-6783.35" y="3310.84" width="4948.98" height="715.41"/>
	</defs>
	<clipPath id="SVGID_00000172400092642538664930000016872741505558930586_">
		<use xlink:href="#SVGID_1_"  style="overflow:visible;"/>
	</clipPath>
	<g style="clip-path:url(#SVGID_00000172400092642538664930000016872741505558930586_);">
		<g>
			<path class="st6" d="M-7275.19,3846.37c24.34-56.52,48.68-113.03,73.02-169.55c46.86-108.79,119.92-233.95,323.22-273.97
				c157.67-31.04,331.84,2.61,494.84,25.35c318.09,44.38,658.52,46.15,978.32,5.1c314.52-40.38,617.89-121.81,941.76-113.51
				c331.73,8.5,627.56,110.2,954.54,140.04c440.81,40.23,879.97-52.68,1312.56-111.8c68.55-9.37,517.39-50.86,640.1,1.26
				c69.22,29.41,112.55,71.79,143.91,114.93c75.53,103.89,90.77,219.02,43.32,327.17"/>
		</g>
		<g>
			<path class="st7" d="M-7072.73,3894.92c15.19-106.93,185.86-202.93,392.58-220.8c147.72-12.77,298.43,10.75,448.09,7.21
				c225.36-5.34,425.49-70.45,626.05-123.28c322.43-84.93,704.59-142.02,1045.6-78.85c197.09,36.51,367.63,111.12,574.98,126.87
				c86.22,6.55,174.01,2.4,260.8-1.75c362.23-17.35,727.15-34.95,1076.05-87.7c176.48-26.68,353.43-62.64,537.23-57.94
				c279.34,7.15,513.45,105.38,725.2,198.82c103.02,45.46,214.49,99.77,215.82,169.35c1.28,67.06-106.9,124.15-229.37,148.13
				c-122.46,23.98-257.48,22.23-388.61,21.83c-553.4-1.67-1105.67,26.59-1659.06,29.23c-534.56,2.55-1068.29-18.8-1601.98-34.58
				c-468.84-13.86-938.16-23.44-1407.66-28.71c-245.52-2.76-497.53-4.98-725.5-51.68"/>
		</g>
		<g>
			<path class="st8" d="M-1234.68,3620.5c-191.82-28.13-403.4-28.49-593.32-1.02c-264.4,38.25-1169.85,128.03-1447.02,143.65
				c-96.96,5.46-195.83,1.39-293.05-4.83c-201.02-12.86-399.32-34.9-590.59-65.66c-199.83-32.13-394.31-54.02-603.82-69.08
				c-202.4-14.54-347.83,0.43-598.56,33.46c-151.68,19.98-683.78,55.17-861.36,72.02c-147.52,13.99-301.41,15.7-453.83,11.65
				c-288.37-7.67-156.64-18.98-411.5-80.13c-51.57,57.57-329.83,112.95-308.6,174.63c7.9,22.96-2.48,47.45,19.73,68.66
				c33.44,31.94,123.84,42.7,202.82,48.87c1306.92,102.03,2959,65.68,4274.69,139.46c138.3,7.75,1091.95-51.88,1212.9-80.85
				c115.63-27.7,177.32-83.49,230.42-136.21c82.41-81.81,160.95-164.39,235.54-247.67"/>
		</g>
	</g>
</g>
<g>
	<defs>
		
			<rect id="SVGID_00000132803315135941536240000002690363234925282219_" x="-6238.91" y="4800.78" width="2418.33" height="753.35"/>
	</defs>
	<clipPath id="SVGID_00000070824269208300755580000003430240822133109136_">
		<use xlink:href="#SVGID_00000132803315135941536240000002690363234925282219_"  style="overflow:visible;"/>
	</clipPath>
	<g style="clip-path:url(#SVGID_00000070824269208300755580000003430240822133109136_);">
		<defs>
			
				<rect id="SVGID_00000002378038517746587960000006137449103601703313_" x="-6783.35" y="4880.85" width="4948.98" height="624.9"/>
		</defs>
		<clipPath id="SVGID_00000069364860070212409000000017799367268087974068_">
			<use xlink:href="#SVGID_00000002378038517746587960000006137449103601703313_"  style="overflow:visible;"/>
		</clipPath>
		<g style="clip-path:url(#SVGID_00000069364860070212409000000017799367268087974068_);">
			<g>
				<path class="st11" d="M-7275.19,5416.39c24.34-56.52,48.68-113.03,73.02-169.54c46.86-108.79,119.92-233.95,323.22-273.97
					c157.67-31.04,331.84,2.61,494.84,25.35c318.09,44.38,658.52,46.15,978.32,5.1c314.52-40.38,617.89-121.81,941.76-113.51
					c331.73,8.5,627.56,110.2,954.54,140.04c440.81,40.23,879.97-52.68,1312.56-111.8c68.55-9.37,517.39-50.86,640.1,1.26
					c69.22,29.41,112.55,71.79,143.91,114.93c75.53,103.89,90.77,219.02,43.32,327.17"/>
			</g>
			<g>
				<path class="st12" d="M-7072.73,5464.94c15.19-106.93,185.86-202.93,392.58-220.8c147.72-12.77,298.43,10.75,448.09,7.21
					c225.36-5.34,425.49-70.45,626.05-123.28c322.43-84.93,704.59-142.02,1045.6-78.85c197.09,36.51,367.63,111.12,574.98,126.87
					c86.22,6.55,174.01,2.4,260.8-1.75c362.23-17.35,727.15-34.95,1076.05-87.7c176.48-26.68,353.43-62.64,537.23-57.94
					c279.34,7.15,513.45,105.38,725.2,198.82c103.02,45.46,214.49,99.77,215.82,169.35c1.28,67.06-106.9,124.15-229.37,148.13
					c-122.46,23.98-257.48,22.23-388.61,21.83c-553.4-1.67-1105.67,26.59-1659.06,29.23c-534.56,2.55-1068.29-18.8-1601.98-34.58
					c-468.84-13.86-938.16-23.44-1407.66-28.71c-245.52-2.76-497.53-4.98-725.5-51.68"/>
			</g>
			<g>
				<path class="st13" d="M-1234.68,5190.52c-191.82-28.13-403.4-28.49-593.32-1.02c-264.4,38.25-1169.85,128.04-1447.02,143.65
					c-96.96,5.46-195.83,1.39-293.05-4.83c-201.02-12.86-399.32-34.9-590.59-65.66c-199.83-32.13-394.31-54.02-603.82-69.08
					c-202.4-14.54-347.83,0.43-598.56,33.46c-151.68,19.98-683.78,55.17-861.36,72.02c-147.52,13.99-301.41,15.7-453.83,11.65
					c-288.37-7.67-156.64-18.98-411.5-80.13c-51.57,57.58-329.83,112.95-308.6,174.63c7.9,22.96-2.48,47.45,19.73,68.66
					c33.44,31.94,123.84,42.7,202.82,48.87c1306.92,102.04,2959,65.68,4274.69,139.46c138.3,7.75,1091.95-51.88,1212.9-80.85
					c115.63-27.7,177.32-83.49,230.42-136.21c82.41-81.81,160.95-164.39,235.54-247.67"/>
			</g>
		</g>
	</g>
</g>
</svg>
