<?xml version="1.0" encoding="utf-8"?>
<!-- Generator: Adobe Illustrator 26.5.0, SVG Export Plug-In . SVG Version: 6.00 Build 0)  -->
<svg version="1.1" id="Capa_1" xmlns="http://www.w3.org/2000/svg" xmlns:xlink="http://www.w3.org/1999/xlink" x="0px" y="0px"
	 viewBox="0 0 220 220" style="enable-background:new 0 0 220 220;" xml:space="preserve">
<style type="text/css">
	.st0{fill:#FBB52C;}
	.st1{fill:#FDA333;}
	.st2{fill:#FFE3F4;}
	.st3{fill:#FFA1C9;}
	.st4{fill:#E49250;}
	.st5{clip-path:url(#SVGID_00000053541951793672952550000000120008982065641092_);}
	.st6{fill:#FCC159;}
	.st7{fill:#FCAC54;}
	.st8{fill:#EA9C68;}
	.st9{clip-path:url(#SVGID_00000008851019199629635050000017525148226874895236_);}
	.st10{clip-path:url(#SVGID_00000111152537191427617450000011220740640303861391_);}
	.st11{fill:#F9C778;}
	.st12{fill:#FCB46D;}
	.st13{fill:#EFAA7B;}
</style>
<g>
	<path class="st0" d="M-1655.41,3031.19c12.45-56.52,24.9-113.03,37.34-169.55c23.96-108.79,61.33-233.95,165.29-273.97
		c80.63-31.04,169.7,2.61,253.06,25.35c162.67,44.38,336.77,46.15,500.31,5.1c160.84-40.38,315.99-121.81,481.61-113.51
		c169.65,8.5,320.93,110.2,488.15,140.04c225.43,40.23,450.01-52.68,671.24-111.8c35.06-9.37,264.59-50.86,327.35,1.26
		c35.4,29.41,57.56,71.79,73.59,114.93c38.63,103.89,46.42,219.02,22.15,327.17"/>
</g>
<g>
	<path class="st1" d="M-1551.87,3079.74c7.77-106.93,95.05-202.93,200.76-220.8c75.54-12.77,152.62,10.75,229.15,7.21
		c115.25-5.34,217.59-70.45,320.16-123.28c164.89-84.93,360.33-142.02,534.71-78.85c100.79,36.51,188,111.12,294.04,126.87
		c44.09,6.55,88.99,2.4,133.37-1.75c185.24-17.35,371.86-34.95,550.29-87.7c90.25-26.68,180.74-62.64,274.74-57.94
		c142.85,7.15,262.58,105.38,370.87,198.82c52.68,45.46,109.69,99.77,110.37,169.35c0.65,67.06-54.67,124.15-117.3,148.13
		c-62.63,23.98-131.67,22.23-198.73,21.84c-283.01-1.67-565.43,26.59-848.43,29.23c-273.37,2.55-546.32-18.8-819.25-34.58
		c-239.76-13.86-479.77-23.44-719.87-28.71c-125.56-2.76-254.44-4.97-371.02-51.68"/>
</g>
<g>
	<circle class="st2" cx="110" cy="110" r="108.21"/>
	<path class="st3" d="M110,151.02c-11.59,0-23.18,0.05-34.77-0.01c-11.07-0.06-19.53-6.66-21.85-17.01
		c-0.41-1.84-0.54-3.78-0.55-5.68c-0.05-12.09-0.04-24.17-0.02-36.26C52.84,78.62,62,69.4,75.44,69.37
		c23.04-0.05,46.07-0.05,69.11,0c13.45,0.03,22.6,9.25,22.63,22.68c0.02,12.09,0.02,24.17,0,36.26
		c-0.03,13.45-9.17,22.64-22.62,22.7C133.04,151.06,121.52,151.02,110,151.02z M95.07,127.64c10.07-5.85,19.86-11.53,30-17.41
		c-10.13-5.91-19.94-11.63-30-17.49C95.07,104.46,95.07,115.85,95.07,127.64z"/>
</g>
<g>
	<g>
		<path class="st1" d="M1152.45,2249.92c3.22,0,3.22-5,0-5C1149.24,2244.92,1149.23,2249.92,1152.45,2249.92L1152.45,2249.92z"/>
	</g>
</g>
<g>
	<g>
		<path class="st1" d="M328.54,2841.51c3.22,0,3.22-5,0-5C325.32,2836.51,325.31,2841.51,328.54,2841.51L328.54,2841.51z"/>
	</g>
</g>
<g>
	<path class="st4" d="M1434.29,2800.29c-98.1-28.13-206.3-28.49-303.42-1.02c-135.21,38.25-598.26,128.04-740,143.65
		c-49.58,5.46-100.15,1.39-149.87-4.83c-102.8-12.86-204.21-34.9-302.02-65.66c-102.19-32.13-201.65-54.02-308.79-69.08
		c-103.51-14.54-177.88,0.43-306.1,33.46c-77.57,19.98-349.68,55.17-440.49,72.02c-75.44,13.99-154.14,15.7-232.09,11.65
		c-147.47-7.67-80.11-18.98-210.44-80.13c-26.37,57.57-168.67,112.95-157.82,174.63c4.04,22.96-1.27,47.45,10.09,68.66
		c17.1,31.94,63.33,42.7,103.72,48.87c668.35,102.03,1574.57-2.86,2247.41,70.91c70.72,7.76,497.06,16.67,558.91-12.3
		c59.13-27.7,90.68-83.49,117.84-136.21c42.15-81.81,82.31-164.39,120.45-247.67"/>
</g>
<g>
	<defs>
		<rect id="SVGID_1_" x="-7024.68" y="3075.21" width="4948.98" height="715.41"/>
	</defs>
	<clipPath id="SVGID_00000156580559080190883560000013972944785659875741_">
		<use xlink:href="#SVGID_1_"  style="overflow:visible;"/>
	</clipPath>
	<g style="clip-path:url(#SVGID_00000156580559080190883560000013972944785659875741_);">
		<g>
			<path class="st6" d="M-7516.51,3610.74c24.34-56.52,48.68-113.03,73.02-169.55c46.86-108.79,119.92-233.95,323.22-273.97
				c157.67-31.04,331.84,2.61,494.84,25.35c318.09,44.38,658.52,46.15,978.32,5.1c314.52-40.38,617.89-121.81,941.76-113.51
				c331.73,8.5,627.56,110.2,954.54,140.04c440.81,40.23,879.97-52.68,1312.56-111.8c68.55-9.37,517.39-50.86,640.1,1.26
				c69.22,29.41,112.55,71.79,143.91,114.93c75.53,103.89,90.77,219.02,43.32,327.17"/>
		</g>
		<g>
			<path class="st7" d="M-7314.06,3659.29c15.19-106.93,185.86-202.93,392.58-220.8c147.72-12.77,298.43,10.75,448.09,7.21
				c225.36-5.34,425.49-70.45,626.05-123.28c322.43-84.93,704.59-142.02,1045.6-78.85c197.09,36.51,367.63,111.12,574.98,126.87
				c86.22,6.55,174.01,2.4,260.8-1.75c362.23-17.35,727.15-34.95,1076.05-87.7c176.48-26.68,353.43-62.64,537.23-57.94
				c279.34,7.15,513.45,105.38,725.2,198.82c103.02,45.46,214.49,99.77,215.82,169.35c1.28,67.06-106.9,124.15-229.37,148.13
				c-122.46,23.98-257.48,22.23-388.61,21.84c-553.4-1.67-1105.67,26.59-1659.06,29.23c-534.56,2.55-1068.29-18.8-1601.98-34.58
				c-468.84-13.86-938.16-23.44-1407.66-28.71c-245.52-2.76-497.53-4.98-725.5-51.68"/>
		</g>
		<g>
			<path class="st8" d="M-1476,3384.87c-191.82-28.13-403.4-28.49-593.32-1.02c-264.4,38.25-1169.85,128.03-1447.02,143.65
				c-96.96,5.46-195.83,1.39-293.05-4.83c-201.02-12.86-399.32-34.9-590.59-65.66c-199.84-32.13-394.31-54.02-603.82-69.08
				c-202.4-14.54-347.83,0.43-598.56,33.46c-151.68,19.98-683.78,55.17-861.36,72.02c-147.52,13.99-301.41,15.7-453.83,11.65
				c-288.37-7.67-156.64-18.98-411.5-80.13c-51.57,57.57-329.83,112.95-308.6,174.63c7.9,22.96-2.48,47.45,19.73,68.66
				c33.44,31.94,123.84,42.7,202.82,48.87c1306.92,102.03,2959,65.68,4274.69,139.46c138.3,7.76,1091.95-51.88,1212.9-80.85
				c115.63-27.7,177.32-83.49,230.42-136.21c82.41-81.81,160.95-164.39,235.54-247.67"/>
		</g>
	</g>
</g>
<g>
	<defs>
		
			<rect id="SVGID_00000146501858249918627160000015872058980130630291_" x="-6480.24" y="4565.15" width="2418.33" height="753.35"/>
	</defs>
	<clipPath id="SVGID_00000085936009628468556330000013845496048266150561_">
		<use xlink:href="#SVGID_00000146501858249918627160000015872058980130630291_"  style="overflow:visible;"/>
	</clipPath>
	<g style="clip-path:url(#SVGID_00000085936009628468556330000013845496048266150561_);">
		<defs>
			
				<rect id="SVGID_00000173868284228121667620000006340307035498495672_" x="-7024.68" y="4645.22" width="4948.98" height="624.9"/>
		</defs>
		<clipPath id="SVGID_00000018952872400513812860000006508973948033555116_">
			<use xlink:href="#SVGID_00000173868284228121667620000006340307035498495672_"  style="overflow:visible;"/>
		</clipPath>
		<g style="clip-path:url(#SVGID_00000018952872400513812860000006508973948033555116_);">
			<g>
				<path class="st11" d="M-7516.51,5180.76c24.34-56.52,48.68-113.03,73.02-169.55c46.86-108.79,119.92-233.95,323.22-273.97
					c157.67-31.04,331.84,2.61,494.84,25.35c318.09,44.38,658.52,46.15,978.32,5.1c314.52-40.38,617.89-121.81,941.76-113.51
					c331.73,8.5,627.56,110.2,954.54,140.04c440.81,40.23,879.97-52.68,1312.56-111.8c68.55-9.37,517.39-50.86,640.1,1.26
					c69.22,29.41,112.55,71.79,143.91,114.93c75.53,103.89,90.77,219.02,43.32,327.17"/>
			</g>
			<g>
				<path class="st12" d="M-7314.06,5229.31c15.19-106.93,185.86-202.93,392.58-220.8c147.72-12.77,298.43,10.75,448.09,7.21
					c225.36-5.34,425.49-70.45,626.05-123.28c322.43-84.93,704.59-142.02,1045.6-78.85c197.09,36.51,367.63,111.12,574.98,126.87
					c86.22,6.55,174.01,2.4,260.8-1.75c362.23-17.35,727.15-34.95,1076.05-87.7c176.48-26.68,353.43-62.64,537.23-57.94
					c279.34,7.15,513.45,105.38,725.2,198.82c103.02,45.46,214.49,99.77,215.82,169.35c1.28,67.06-106.9,124.15-229.37,148.13
					c-122.46,23.98-257.48,22.23-388.61,21.83c-553.4-1.67-1105.67,26.59-1659.06,29.23c-534.56,2.55-1068.29-18.8-1601.98-34.58
					c-468.84-13.86-938.16-23.44-1407.66-28.71c-245.52-2.76-497.53-4.98-725.5-51.68"/>
			</g>
			<g>
				<path class="st13" d="M-1476,4954.89c-191.82-28.13-403.4-28.49-593.32-1.02c-264.4,38.25-1169.85,128.04-1447.02,143.65
					c-96.96,5.46-195.83,1.39-293.05-4.83c-201.02-12.86-399.32-34.9-590.59-65.66c-199.84-32.13-394.31-54.02-603.82-69.08
					c-202.4-14.54-347.83,0.43-598.56,33.46c-151.68,19.98-683.78,55.17-861.36,72.02c-147.52,13.99-301.41,15.7-453.83,11.65
					c-288.37-7.67-156.64-18.98-411.5-80.13c-51.57,57.58-329.83,112.95-308.6,174.63c7.9,22.96-2.48,47.45,19.73,68.66
					c33.44,31.94,123.84,42.7,202.82,48.87c1306.92,102.04,2959,65.68,4274.69,139.46c138.3,7.76,1091.95-51.88,1212.9-80.85
					c115.63-27.7,177.32-83.49,230.42-136.21c82.41-81.81,160.95-164.39,235.54-247.67"/>
			</g>
		</g>
	</g>
</g>
</svg>
