<?xml version="1.0" encoding="utf-8"?>
<!-- Generator: Adobe Illustrator 26.5.0, SVG Export Plug-In . SVG Version: 6.00 Build 0)  -->
<svg version="1.1" id="Capa_1" xmlns="http://www.w3.org/2000/svg" xmlns:xlink="http://www.w3.org/1999/xlink" x="0px" y="0px"
	 viewBox="0 0 220 220" style="enable-background:new 0 0 220 220;" xml:space="preserve">
<style type="text/css">
	.st0{fill:#FBB52C;}
	.st1{fill:#FDA333;}
	.st2{fill:#FFE3F4;}
	.st3{fill:#FFA1C9;}
	.st4{fill:#E49250;}
	.st5{clip-path:url(#SVGID_00000088135439948469902020000010313590958550321027_);}
	.st6{fill:#FCC159;}
	.st7{fill:#FCAC54;}
	.st8{fill:#EA9C68;}
	.st9{clip-path:url(#SVGID_00000123416223857409511980000016450691860784437673_);}
	.st10{clip-path:url(#SVGID_00000090257955069948593990000006421824220094287540_);}
	.st11{fill:#F9C778;}
	.st12{fill:#FCB46D;}
	.st13{fill:#EFAA7B;}
</style>
<g>
	<path class="st0" d="M-1414.08,3031.19c12.45-56.52,24.9-113.03,37.34-169.55c23.96-108.79,61.33-233.95,165.29-273.97
		c80.63-31.04,169.7,2.61,253.06,25.35c162.67,44.38,336.77,46.15,500.31,5.1c160.84-40.38,315.99-121.81,481.61-113.51
		c169.65,8.5,320.93,110.2,488.15,140.04c225.43,40.23,450.01-52.68,671.24-111.8c35.06-9.37,264.59-50.86,327.35,1.26
		c35.4,29.41,57.56,71.79,73.59,114.93c38.63,103.89,46.42,219.02,22.15,327.17"/>
</g>
<g>
	<path class="st1" d="M-1310.54,3079.74c7.77-106.93,95.05-202.93,200.76-220.8c75.54-12.77,152.62,10.75,229.15,7.21
		c115.25-5.34,217.59-70.45,320.16-123.28c164.89-84.93,360.33-142.02,534.71-78.85c100.79,36.51,188,111.12,294.04,126.87
		c44.09,6.55,88.99,2.4,133.37-1.75c185.24-17.35,371.86-34.95,550.29-87.7c90.25-26.68,180.74-62.64,274.74-57.94
		c142.85,7.15,262.58,105.38,370.87,198.82c52.68,45.46,109.69,99.77,110.37,169.35c0.65,67.06-54.67,124.15-117.3,148.13
		c-62.63,23.98-131.67,22.23-198.73,21.84c-283.01-1.67-565.43,26.59-848.43,29.23c-273.37,2.55-546.32-18.8-819.25-34.58
		c-239.76-13.86-479.77-23.44-719.87-28.71c-125.56-2.76-254.44-4.97-371.02-51.68"/>
</g>
<g>
	<circle class="st2" cx="110.21" cy="109.95" r="108.21"/>
	<path class="st3" d="M138.98,47.19c0,7.22,0,14.19,0,21.5c-1.81,0-3.55,0-5.28,0c-2.9,0-5.8-0.07-8.69,0.03
		c-3.37,0.11-5.37,1.93-5.47,5.24c-0.14,4.51-0.04,9.03-0.04,13.83c6.62,0,13.14,0,19.92,0c-0.77,7.51-1.51,14.71-2.27,22.19
		c-5.82,0-11.63,0-17.63,0c0,21.08,0,41.9,0,62.88c-8.76,0-17.33,0-26.13,0c0-20.82,0-41.63,0-62.65c-4.2,0-8.19,0-12.36,0
		c0-7.5,0-14.8,0-22.35c3.99,0,7.98,0,12.23,0c0-2.63-0.06-5.01,0.01-7.39c0.14-4.3-0.09-8.68,0.64-12.88
		c2.16-12.41,9.89-19.5,22.46-20.31C123.8,46.79,131.3,47.19,138.98,47.19z"/>
</g>
<g>
	<g>
		<path class="st1" d="M1393.78,2249.92c3.22,0,3.22-5,0-5C1390.56,2244.92,1390.56,2249.92,1393.78,2249.92L1393.78,2249.92z"/>
	</g>
</g>
<g>
	<g>
		<path class="st1" d="M569.86,2841.51c3.22,0,3.22-5,0-5C566.65,2836.51,566.64,2841.51,569.86,2841.51L569.86,2841.51z"/>
	</g>
</g>
<g>
	<path class="st4" d="M1675.61,2800.29c-98.1-28.13-206.3-28.49-303.42-1.02c-135.21,38.25-598.26,128.04-740,143.65
		c-49.58,5.46-100.15,1.39-149.87-4.83c-102.8-12.86-204.21-34.9-302.02-65.66c-102.19-32.13-201.65-54.02-308.79-69.08
		c-103.51-14.54-177.88,0.43-306.1,33.46c-77.57,19.98-349.68,55.17-440.49,72.02c-75.44,13.99-154.14,15.7-232.09,11.65
		c-147.47-7.67-80.11-18.98-210.44-80.13c-26.37,57.57-168.67,112.95-157.82,174.63c4.04,22.96-1.27,47.45,10.09,68.66
		c17.1,31.94,63.33,42.7,103.72,48.87c668.35,102.03,1574.57-2.86,2247.41,70.91c70.72,7.76,497.06,16.67,558.91-12.3
		c59.13-27.7,90.68-83.49,117.84-136.21c42.15-81.81,82.31-164.39,120.45-247.67"/>
</g>
<g>
	<defs>
		<rect id="SVGID_1_" x="-6783.35" y="3075.21" width="4948.98" height="715.41"/>
	</defs>
	<clipPath id="SVGID_00000012465637041824887880000014225287433036085664_">
		<use xlink:href="#SVGID_1_"  style="overflow:visible;"/>
	</clipPath>
	<g style="clip-path:url(#SVGID_00000012465637041824887880000014225287433036085664_);">
		<g>
			<path class="st6" d="M-7275.19,3610.74c24.34-56.52,48.68-113.03,73.02-169.55c46.86-108.79,119.92-233.95,323.22-273.97
				c157.67-31.04,331.84,2.61,494.84,25.35c318.09,44.38,658.52,46.15,978.32,5.1c314.52-40.38,617.89-121.81,941.76-113.51
				c331.73,8.5,627.56,110.2,954.54,140.04c440.81,40.23,879.97-52.68,1312.56-111.8c68.55-9.37,517.39-50.86,640.1,1.26
				c69.22,29.41,112.55,71.79,143.91,114.93c75.53,103.89,90.77,219.02,43.32,327.17"/>
		</g>
		<g>
			<path class="st7" d="M-7072.73,3659.29c15.19-106.93,185.86-202.93,392.58-220.8c147.72-12.77,298.43,10.75,448.09,7.21
				c225.36-5.34,425.49-70.45,626.05-123.28c322.43-84.93,704.59-142.02,1045.6-78.85c197.09,36.51,367.63,111.12,574.98,126.87
				c86.22,6.55,174.01,2.4,260.8-1.75c362.23-17.35,727.15-34.95,1076.05-87.7c176.48-26.68,353.43-62.64,537.23-57.94
				c279.34,7.15,513.45,105.38,725.2,198.82c103.02,45.46,214.49,99.77,215.82,169.35c1.28,67.06-106.9,124.15-229.37,148.13
				c-122.46,23.98-257.48,22.23-388.61,21.84c-553.4-1.67-1105.67,26.59-1659.06,29.23c-534.56,2.55-1068.29-18.8-1601.98-34.58
				c-468.84-13.86-938.16-23.44-1407.66-28.71c-245.52-2.76-497.53-4.98-725.5-51.68"/>
		</g>
		<g>
			<path class="st8" d="M-1234.68,3384.87c-191.82-28.13-403.4-28.49-593.32-1.02c-264.4,38.25-1169.85,128.03-1447.02,143.65
				c-96.96,5.46-195.83,1.39-293.05-4.83c-201.02-12.86-399.32-34.9-590.59-65.66c-199.83-32.13-394.31-54.02-603.82-69.08
				c-202.4-14.54-347.83,0.43-598.56,33.46c-151.68,19.98-683.78,55.17-861.36,72.02c-147.52,13.99-301.41,15.7-453.83,11.65
				c-288.37-7.67-156.64-18.98-411.5-80.13c-51.57,57.57-329.83,112.95-308.6,174.63c7.9,22.96-2.48,47.45,19.73,68.66
				c33.44,31.94,123.84,42.7,202.82,48.87c1306.92,102.03,2959,65.68,4274.69,139.46c138.3,7.76,1091.95-51.88,1212.9-80.85
				c115.63-27.7,177.32-83.49,230.42-136.21c82.41-81.81,160.95-164.39,235.54-247.67"/>
		</g>
	</g>
</g>
<g>
	<defs>
		
			<rect id="SVGID_00000175311889702885875530000005879441903887105715_" x="-6238.91" y="4565.15" width="2418.33" height="753.35"/>
	</defs>
	<clipPath id="SVGID_00000005984502567366556230000013861737126094323874_">
		<use xlink:href="#SVGID_00000175311889702885875530000005879441903887105715_"  style="overflow:visible;"/>
	</clipPath>
	<g style="clip-path:url(#SVGID_00000005984502567366556230000013861737126094323874_);">
		<defs>
			
				<rect id="SVGID_00000056416246965672518090000013751635425748013965_" x="-6783.35" y="4645.22" width="4948.98" height="624.9"/>
		</defs>
		<clipPath id="SVGID_00000182504789489246843270000003198781902959452046_">
			<use xlink:href="#SVGID_00000056416246965672518090000013751635425748013965_"  style="overflow:visible;"/>
		</clipPath>
		<g style="clip-path:url(#SVGID_00000182504789489246843270000003198781902959452046_);">
			<g>
				<path class="st11" d="M-7275.19,5180.76c24.34-56.52,48.68-113.03,73.02-169.55c46.86-108.79,119.92-233.95,323.22-273.97
					c157.67-31.04,331.84,2.61,494.84,25.35c318.09,44.38,658.52,46.15,978.32,5.1c314.52-40.38,617.89-121.81,941.76-113.51
					c331.73,8.5,627.56,110.2,954.54,140.04c440.81,40.23,879.97-52.68,1312.56-111.8c68.55-9.37,517.39-50.86,640.1,1.26
					c69.22,29.41,112.55,71.79,143.91,114.93c75.53,103.89,90.77,219.02,43.32,327.17"/>
			</g>
			<g>
				<path class="st12" d="M-7072.73,5229.31c15.19-106.93,185.86-202.93,392.58-220.8c147.72-12.77,298.43,10.75,448.09,7.21
					c225.36-5.34,425.49-70.45,626.05-123.28c322.43-84.93,704.59-142.02,1045.6-78.85c197.09,36.51,367.63,111.12,574.98,126.87
					c86.22,6.55,174.01,2.4,260.8-1.75c362.23-17.35,727.15-34.95,1076.05-87.7c176.48-26.68,353.43-62.64,537.23-57.94
					c279.34,7.15,513.45,105.38,725.2,198.82c103.02,45.46,214.49,99.77,215.82,169.35c1.28,67.06-106.9,124.15-229.37,148.13
					c-122.46,23.98-257.48,22.23-388.61,21.83c-553.4-1.67-1105.67,26.59-1659.06,29.23c-534.56,2.55-1068.29-18.8-1601.98-34.58
					c-468.84-13.86-938.16-23.44-1407.66-28.71c-245.52-2.76-497.53-4.98-725.5-51.68"/>
			</g>
			<g>
				<path class="st13" d="M-1234.68,4954.89c-191.82-28.13-403.4-28.49-593.32-1.02c-264.4,38.25-1169.85,128.04-1447.02,143.65
					c-96.96,5.46-195.83,1.39-293.05-4.83c-201.02-12.86-399.32-34.9-590.59-65.66c-199.83-32.13-394.31-54.02-603.82-69.08
					c-202.4-14.54-347.83,0.43-598.56,33.46c-151.68,19.98-683.78,55.17-861.36,72.02c-147.52,13.99-301.41,15.7-453.83,11.65
					c-288.37-7.67-156.64-18.98-411.5-80.13c-51.57,57.58-329.83,112.95-308.6,174.63c7.9,22.96-2.48,47.45,19.73,68.66
					c33.44,31.94,123.84,42.7,202.82,48.87c1306.92,102.04,2959,65.68,4274.69,139.46c138.3,7.76,1091.95-51.88,1212.9-80.85
					c115.63-27.7,177.32-83.49,230.42-136.21c82.41-81.81,160.95-164.39,235.54-247.67"/>
			</g>
		</g>
	</g>
</g>
</svg>
